<svg width="251" height="763" viewBox="0 0 251 763" fill="none" xmlns="http://www.w3.org/2000/svg">
<path d="M143.78 434.775L88.0238 433.332C143.78 434.775 138.506 434.775 143.78 434.775L142.581 487.373C147.546 489.495 154.581 492.646 164.213 493.366H179.3C179.3 493.366 194.387 493.366 203.697 482.881C211.611 473.969 207.516 471.451 213.246 465.326C218.021 461.651 226.042 459.04 231.389 474.717C232.981 483.562 228.754 504.457 221.84 523.3C216.747 537.182 210.19 568.863 224.705 584.542C229.901 590.153 250.965 620.878 250.965 650.271C249.055 677.626 246 736.091 180.301 754.38C146.083 765.405 65.4233 773.896 16.5311 719.678C0.615736 702.803 -5.19373 676.715 6.02692 634.5L16.5311 617.5L23.693 604.139C34.3526 584.542 41.992 559.895 34.3526 547.809L23.693 523.3C16.5311 505.465 -0.0845118 489.578 6.02701 460.835C12.1385 432.093 114.177 433.141 143.78 434.775Z" fill="#06061C" fill-opacity="0.65"/>
<path d="M72.9864 496.296C65.4324 507.81 41.1971 535.497 63.544 601.764C67.793 614.363 74.4027 616.733 85.2613 614.363C106.664 609.698 139.083 601.297 159.856 612.032C166.466 617.164 177.797 621.365 193.849 672.231C201.875 688.098 214.732 682.966 216.038 669.897C217.297 657.297 211.789 632.098 208.012 610.164C201.088 579.52 178.602 522.898 134.834 499.097C120.41 492.685 85.5353 477.173 72.9864 496.296Z" fill="#FAFFFE"/>
<path d="M89.6263 511.134L105.49 98.4908V10.3455C105.49 0.339802 116.267 -0.573418 121.655 0.220684H162.391C171.185 0.220684 173.384 6.97056 173.384 10.3455L150.753 98.4908L142.495 511.548C142.413 515.669 138.819 518.968 134.414 518.968H97.7037C93.1257 518.968 89.4616 515.414 89.6263 511.134Z" fill="#FFF1D1"/>
<path d="M83.9366 573.915C83.9366 571.13 86.3492 568.874 89.325 568.874H145.364C148.34 568.874 150.753 571.13 150.753 573.915V580.972C150.753 583.757 148.34 586.013 145.364 586.013H89.325C86.3492 586.013 83.9366 583.757 83.9366 580.972V573.915Z" fill="black"/>
<path d="M145.364 639.447H89.325C86.3491 639.447 83.9366 641.704 83.9366 644.488V651.546C83.9366 654.33 86.3491 656.587 89.325 656.587H145.364C148.34 656.587 150.753 654.33 150.753 651.546V644.488C150.753 641.704 148.34 639.447 145.364 639.447Z" fill="black"/>
<path d="M177.425 605.169C183.079 605.169 187.663 600.768 187.663 595.339C187.663 589.91 183.079 585.509 177.425 585.509C171.771 585.509 167.187 589.91 167.187 595.339C167.187 600.768 171.771 605.169 177.425 605.169Z" fill="#D9D9D9"/>
<path d="M201.449 620.715C201.449 626.144 196.865 630.545 191.211 630.545C185.557 630.545 180.973 626.144 180.973 620.715C180.973 615.286 185.557 610.885 191.211 610.885C196.865 610.885 201.449 615.286 201.449 620.715Z" fill="#D9D9D9"/>
<path d="M200.326 657.595C205.98 657.595 210.564 653.194 210.564 647.765C210.564 642.336 205.98 637.935 200.326 637.935C194.671 637.935 190.088 642.336 190.088 647.765C190.088 653.194 194.671 657.595 200.326 657.595Z" fill="#D9D9D9"/>
<path d="M141.504 708.706H88.4281C86.0473 708.706 84.1174 710.512 84.1174 712.739C84.1174 714.966 86.0473 716.772 88.4281 716.772H141.504C143.884 716.772 145.814 714.966 145.814 712.739C145.814 710.512 143.884 708.706 141.504 708.706Z" fill="#D9D9D9"/>
</svg>
